<?xml version="1.0" standalone="no"?>
<!DOCTYPE svg PUBLIC "-//W3C//DTD SVG 20010904//EN"
 "http://www.w3.org/TR/2001/REC-SVG-20010904/DTD/svg10.dtd">
<svg version="1.0" xmlns="http://www.w3.org/2000/svg"
 width="240.000000pt" height="224.000000pt" viewBox="0 0 240.000000 224.000000"
 preserveAspectRatio="xMidYMid meet">

<g transform="translate(0.000000,224.000000) scale(0.100000,-0.100000)"
fill="#000000" stroke="none">
<path d="M895 1927 c-8 -12 -15 -36 -15 -55 0 -30 2 -32 20 -22 11 6 27 21 36
35 14 22 14 25 -5 44 l-20 20 -16 -22z"/>
<path d="M1467 1925 c-25 -18 -14 -51 24 -70 29 -15 29 -15 29 14 0 16 -8 38
-17 50 -16 18 -20 19 -36 6z"/>
<path d="M992 1907 c-12 -13 -22 -26 -22 -30 0 -11 63 -8 80 3 13 8 12 10 -2
10 -11 0 -18 8 -18 20 0 26 -12 25 -38 -3z"/>
<path d="M1370 1910 c0 -12 -7 -20 -17 -20 -15 0 -16 -2 -3 -10 23 -15 70 -12
70 3 0 14 -31 47 -43 47 -4 0 -7 -9 -7 -20z"/>
<path d="M1586 1865 c5 -11 0 -18 -15 -22 -12 -3 -20 -10 -18 -16 5 -17 56
-51 63 -44 9 8 -13 84 -26 92 -6 3 -7 -1 -4 -10z"/>
<path d="M790 1850 c-12 -22 -13 -70 -2 -70 5 0 19 11 31 24 l23 24 -21 21
c-20 20 -21 20 -31 1z"/>
<path d="M909 1831 l-23 -19 37 -10 c24 -7 49 -7 72 -1 43 12 46 27 5 21 -21
-3 -32 0 -36 12 -8 21 -27 20 -55 -3z"/>
<path d="M1436 1834 c-5 -13 -15 -15 -41 -11 -38 6 -49 -10 -12 -17 40 -9 115
-11 110 -3 -2 4 2 7 9 7 17 1 -30 40 -47 40 -7 0 -16 -7 -19 -16z"/>
<path d="M761 1804 c0 -11 3 -14 6 -6 3 7 2 16 -1 19 -3 4 -6 -2 -5 -13z"/>
<path d="M1672 1800 c2 -10 -5 -15 -19 -14 -13 0 -23 -3 -23 -7 0 -12 51 -69
61 -69 15 0 10 65 -6 86 -11 13 -14 14 -13 4z"/>
<path d="M701 1777 c-23 -58 -8 -78 33 -46 31 24 34 49 7 49 -11 0 -21 6 -24
13 -3 6 -10 0 -16 -16z"/>
<path d="M817 1783 c-15 -8 -25 -18 -22 -23 10 -16 109 -12 131 6 18 14 18 15
-5 4 -19 -10 -28 -9 -50 8 -24 18 -30 18 -54 5z"/>
<path d="M1528 1780 c-16 -18 -64 -17 -52 1 3 5 -2 6 -12 2 -28 -10 24 -32 78
-33 55 0 68 12 36 34 -27 19 -29 19 -50 -4z"/>
<path d="M627 1707 c-8 -29 0 -77 13 -77 14 0 40 37 40 58 0 15 -6 22 -19 22
-11 0 -21 6 -23 12 -3 7 -8 1 -11 -15z"/>
<path d="M751 1717 c-14 -6 -26 -17 -28 -24 -11 -32 101 -20 128 15 13 15 12
16 -3 4 -20 -16 -74 -12 -70 6 3 15 3 15 -27 -1z"/>
<path d="M1622 1718 c4 -17 -49 -23 -68 -7 -8 6 -17 9 -21 6 -3 -4 15 -16 41
-28 55 -24 117 -19 95 7 -19 23 -50 38 -47 22z"/>
<path d="M1714 1696 c7 -49 32 -79 46 -56 5 8 10 29 10 47 0 27 -3 30 -21 26
-12 -4 -25 0 -31 8 -7 10 -8 2 -4 -25z"/>
<path d="M682 1644 c-12 -8 -22 -22 -22 -31 0 -13 9 -15 45 -11 43 5 102 34
92 45 -3 3 -16 -2 -28 -11 -16 -11 -27 -12 -41 -5 -10 5 -16 14 -13 20 9 14
-8 11 -33 -7z"/>
<path d="M1682 1648 c4 -17 -39 -23 -58 -7 -8 6 -17 9 -20 6 -12 -12 62 -47
99 -47 41 0 46 9 20 32 -29 25 -44 31 -41 16z"/>
<path d="M1817 1623 c-5 -7 -17 -13 -27 -13 -17 0 -18 -4 -9 -29 6 -17 17 -35
24 -41 11 -9 15 -7 20 13 9 34 2 86 -8 70z"/>
<path d="M563 1585 c9 -57 23 -64 43 -22 20 42 20 43 -20 53 -29 7 -29 7 -23
-31z"/>
<path d="M1037 1523 c-24 -43 -106 -186 -181 -317 -75 -131 -134 -241 -131
-244 7 -8 903 -10 932 -2 21 5 16 15 -80 180 -262 447 -269 458 -291 453 -12
-3 -28 -6 -36 -7 -9 -1 -21 -5 -28 -10 -15 -9 -90 2 -98 15 -3 5 -14 9 -24 9
-13 0 -32 -24 -63 -77z m315 -113 c-27 -25 -41 -30 -82 -30 -28 0 -50 -4 -50
-9 0 -5 -11 -8 -25 -8 -14 0 -25 3 -25 8 0 5 -22 9 -50 9 -41 0 -55 5 -82 30
l-33 29 190 0 190 0 -33 -29z m-209 -90 c-3 -11 -14 -17 -29 -17 -13 0 -21 4
-18 9 4 6 0 14 -7 19 -11 7 -10 9 4 9 9 0 17 5 17 10 0 6 7 6 19 -1 10 -7 16
-20 14 -29z m152 20 c8 0 11 -7 8 -19 -3 -12 -14 -18 -29 -18 -17 0 -23 4 -20
13 3 7 0 15 -7 18 -7 2 -4 5 6 5 9 1 17 7 18 14 0 10 2 10 6 0 2 -7 11 -13 18
-13z m-128 -90 c12 0 13 -3 4 -13 -6 -8 -8 -16 -5 -19 2 -3 -6 -5 -20 -5 -29
0 -39 26 -16 44 8 6 16 7 18 2 2 -5 11 -9 19 -9z m99 -21 c0 -12 -7 -17 -21
-16 -26 3 -36 29 -17 43 19 14 38 0 38 -27z m-120 -65 c42 -11 135 13 166 43
l28 27 0 -32 c0 -22 5 -32 16 -32 36 0 -31 -110 -93 -153 -54 -37 -63 -35 -63
17 0 43 -1 44 -43 54 -47 12 -80 41 -96 85 -20 53 -13 61 24 28 20 -17 47 -34
61 -37z"/>
<path d="M627 1548 l-32 -33 28 -3 c16 -2 40 4 55 14 l26 17 -23 8 c-12 5 -19
13 -16 19 13 21 -8 9 -38 -22z"/>
<path d="M1679 1556 c19 -23 65 -46 91 -46 25 0 25 11 2 40 -16 20 -21 21 -40
9 -19 -12 -25 -12 -44 0 -21 13 -22 13 -9 -3z"/>
<path d="M1872 1523 c-1 -7 -11 -13 -21 -13 -29 0 -33 -15 -16 -57 l16 -38 15
28 c8 15 13 42 11 60 -2 18 -5 26 -5 20z"/>
<path d="M514 1482 c3 -19 11 -40 17 -49 11 -12 14 -11 25 9 8 13 13 34 14 48
0 21 -5 25 -31 25 -29 0 -31 -2 -25 -33z"/>
<path d="M670 1485 c-15 -18 -50 -20 -50 -3 0 6 -11 1 -25 -12 -49 -46 -19
-68 42 -30 17 10 37 28 43 39 13 25 8 27 -10 6z"/>
<path d="M1710 1493 c0 -6 16 -25 35 -42 40 -35 89 -43 78 -13 -12 32 -25 42
-50 36 -16 -4 -30 0 -43 11 -11 10 -20 13 -20 8z"/>
<path d="M481 1417 c-1 -38 13 -76 33 -89 14 -9 26 10 26 43 0 20 -6 28 -24
33 -15 4 -26 15 -29 29 -3 13 -5 7 -6 -16z"/>
<path d="M1901 1413 c-7 -8 -19 -12 -26 -9 -16 6 -27 -31 -18 -62 7 -29 23
-24 46 16 22 37 21 79 -2 55z"/>
<path d="M1804 1393 c4 -7 -2 -14 -14 -18 -11 -3 -20 -11 -20 -16 0 -10 59
-49 74 -49 14 0 -4 54 -26 75 -11 11 -18 15 -14 8z"/>
<path d="M562 1370 c-14 -23 -16 -60 -3 -60 5 0 24 12 41 27 l32 26 -24 13
c-30 17 -31 17 -46 -6z"/>
<path d="M1930 1305 c0 -9 -9 -15 -25 -15 -26 0 -45 -25 -45 -59 0 -49 63 -1
75 57 3 17 4 32 1 32 -3 0 -6 -7 -6 -15z"/>
<path d="M460 1280 c0 -12 15 -36 32 -53 33 -32 33 -32 36 -8 6 39 -7 72 -26
69 -9 -1 -23 1 -29 5 -9 6 -13 1 -13 -13z"/>
<path d="M560 1281 c-5 -11 -10 -33 -10 -50 0 -23 4 -29 19 -28 11 0 19 4 18
7 0 3 6 19 15 36 16 30 16 30 -5 30 -13 -1 -21 4 -19 12 3 18 -6 15 -18 -7z"/>
<path d="M1801 1271 l-25 -7 31 -34 c27 -30 33 -33 38 -17 8 19 -1 68 -13 66
-4 -1 -18 -4 -31 -8z"/>
<path d="M1812 1190 c2 -10 -4 -15 -19 -14 -13 0 -23 -2 -23 -5 0 -14 41 -71
50 -71 17 0 16 77 -1 95 -7 7 -9 5 -7 -5z"/>
<path d="M1871 1174 c-24 -30 -28 -74 -7 -74 19 0 66 50 65 69 0 10 -2 12 -6
4 -5 -14 -43 -18 -43 -5 0 4 5 13 12 20 7 7 9 12 6 12 -4 0 -16 -12 -27 -26z"/>
<path d="M465 1170 c8 -29 49 -70 71 -70 16 0 18 9 5 44 -8 19 -15 23 -32 19
-15 -4 -27 0 -37 13 -13 18 -14 18 -7 -6z"/>
<path d="M566 1175 c-10 -26 -7 -63 5 -71 14 -8 25 3 44 49 15 37 15 37 -5 25
-17 -11 -22 -11 -29 0 -7 11 -10 10 -15 -3z"/>
<path d="M490 1092 c0 -29 31 -83 55 -94 32 -14 41 -5 29 29 -7 20 -16 28 -34
28 -16 0 -29 9 -37 25 -7 14 -13 19 -13 12z"/>
<path d="M595 1067 c-4 -15 -4 -39 0 -54 l7 -28 24 28 c28 33 33 70 8 60 -9
-3 -20 0 -24 8 -6 9 -10 6 -15 -14z"/>
<path d="M1745 1066 c8 -36 35 -77 46 -70 5 3 9 22 9 44 0 34 -2 38 -21 33
-12 -4 -25 0 -31 8 -7 10 -8 6 -3 -15z"/>
<path d="M1837 1063 c-8 -10 -19 -30 -22 -45 -6 -24 -4 -28 13 -28 20 0 72 52
72 73 0 8 -4 7 -12 -1 -7 -7 -21 -12 -31 -12 -16 0 -17 3 -7 15 17 21 7 19
-13 -2z"/>
<path d="M1700 982 c0 -13 7 -39 16 -60 l15 -37 14 25 c20 36 19 71 -1 63 -11
-4 -22 1 -30 12 -13 18 -14 18 -14 -3z"/>
<path d="M641 953 c-1 -23 4 -45 11 -49 16 -10 38 25 37 60 0 17 -3 25 -6 19
-2 -7 -11 -13 -18 -13 -7 0 -16 6 -18 13 -3 6 -6 -7 -6 -30z"/>
<path d="M530 966 c0 -8 12 -28 26 -45 39 -47 95 -39 65 8 -5 8 -25 15 -43 15
-25 1 -33 5 -32 19 1 9 -2 17 -7 17 -5 0 -9 -6 -9 -14z"/>
<path d="M1847 974 c24 -10 1 -34 -33 -34 -23 0 -37 -6 -44 -19 -14 -27 -13
-31 11 -31 31 0 57 17 74 50 19 37 19 40 -2 39 -10 0 -13 -3 -6 -5z"/>
<path d="M1682 906 c-2 -13 -8 -17 -22 -13 -17 4 -20 0 -19 -26 0 -18 4 -40 8
-50 6 -17 8 -17 24 1 13 15 17 32 14 63 -2 24 -4 36 -5 25z"/>
<path d="M700 873 c0 -32 26 -76 41 -68 12 8 12 85 0 85 -5 0 -16 3 -25 6 -12
5 -16 -1 -16 -23z"/>
<path d="M590 865 c0 -20 26 -49 55 -61 67 -28 83 -14 39 33 -17 19 -27 24
-31 16 -7 -18 -28 -16 -47 3 -9 8 -16 13 -16 9z"/>
<path d="M775 859 c-4 -6 -4 -13 -1 -16 3 -4 6 -1 6 6 0 7 5 9 12 5 7 -4 8 -3
4 4 -9 15 -13 15 -21 1z"/>
<path d="M1710 840 c-11 -11 -20 -27 -20 -36 0 -21 57 -9 88 19 25 23 31 47 6
26 -12 -10 -20 -10 -35 -1 -16 10 -22 9 -39 -8z"/>
<path d="M335 819 c-38 -16 -74 -34 -79 -39 -32 -32 231 -350 289 -350 34 0
21 25 -47 92 -40 40 -97 105 -125 145 -57 79 -57 81 14 117 38 19 45 29 37 50
-8 20 -5 20 -89 -15z"/>
<path d="M2000 831 c-8 -16 -4 -23 33 -44 45 -27 87 -67 69 -67 -6 0 -40 -38
-76 -84 -36 -46 -91 -107 -122 -134 -54 -48 -62 -72 -26 -72 23 0 133 99 186
169 70 91 124 191 104 191 -2 0 -36 14 -77 30 -40 17 -75 30 -77 30 -2 0 -8
-9 -14 -19z"/>
<path d="M1620 824 c0 -14 -3 -14 -16 -3 -21 17 -34 -3 -34 -53 0 -42 9 -47
34 -19 17 18 35 91 22 91 -3 0 -6 -7 -6 -16z"/>
<path d="M783 813 c-20 -7 -15 -37 8 -62 28 -30 44 -14 35 33 -7 34 -16 41
-43 29z"/>
<path d="M874 773 c0 -10 -5 -17 -11 -15 -7 1 -13 -3 -13 -8 0 -18 30 -70 40
-70 6 0 13 0 18 0 10 1 2 51 -14 83 -17 31 -22 34 -20 10z"/>
<path d="M660 771 c0 -5 14 -21 31 -35 31 -26 82 -35 94 -16 9 14 -35 54 -47
42 -11 -11 -48 -4 -48 9 0 5 -7 9 -15 9 -8 0 -15 -4 -15 -9z"/>
<path d="M1496 751 c-10 -18 -16 -44 -14 -58 l3 -25 26 21 c23 18 49 78 28 65
-4 -2 -12 3 -17 13 -8 14 -12 12 -26 -16z"/>
<path d="M1710 769 c0 -7 -14 -10 -35 -7 -38 4 -73 -21 -60 -42 10 -16 72 -6
96 16 20 18 25 44 9 44 -5 0 -10 -5 -10 -11z"/>
<path d="M935 723 c3 -16 13 -38 21 -51 16 -24 60 -49 70 -40 10 10 -34 84
-60 101 -35 23 -39 21 -31 -10z"/>
<path d="M1418 721 c-21 -18 -38 -40 -38 -50 0 -14 -2 -14 -10 -1 -5 8 -10 28
-10 44 0 27 -2 28 -37 23 -41 -7 -94 -52 -86 -74 5 -11 -3 -14 -38 -11 -24 2
-44 8 -44 13 -1 20 -21 44 -50 59 -47 25 -63 21 -71 -18 -5 -28 -1 -41 20 -69
26 -34 33 -57 17 -57 -5 0 -11 7 -15 15 -7 20 -36 19 -65 -4 -37 -28 -19 -45
42 -37 39 4 58 13 84 38 18 17 33 28 33 23 0 -16 -53 -77 -84 -96 l-31 -19 28
0 c25 0 27 -2 17 -20 -6 -11 -7 -20 -2 -20 19 0 77 47 99 78 l22 33 16 -30
c14 -28 78 -81 98 -81 5 0 5 9 2 20 -5 16 -2 20 17 21 22 0 22 1 3 12 -26 16
-74 66 -87 91 -7 15 -1 12 23 -11 37 -34 92 -50 136 -38 l28 7 -28 24 c-33 28
-55 30 -73 7 -11 -15 -13 -15 -13 -3 -1 8 8 26 19 40 15 19 22 22 28 12 5 -8
16 -10 27 -6 13 5 16 4 11 -5 -22 -35 77 -58 120 -27 18 14 17 15 -19 31 -21
9 -48 13 -62 9 l-26 -6 21 35 c12 20 20 46 18 59 -3 21 -4 21 -40 -11z"/>
<path d="M765 686 c-18 -13 -17 -14 13 -30 38 -19 72 -21 96 -3 15 11 15 15 4
24 -18 15 -39 18 -62 8 -11 -5 -21 -3 -25 4 -5 8 -12 7 -26 -3z"/>
<path d="M1526 684 c-34 -19 -25 -32 27 -41 25 -4 44 0 62 11 33 22 32 36 -2
34 -16 -1 -35 2 -43 5 -8 3 -28 -1 -44 -9z"/>
<path d="M905 643 c-11 -3 -26 -10 -33 -16 -11 -9 -11 -13 4 -24 32 -23 124
-11 124 16 0 9 -56 32 -69 30 -3 -1 -15 -4 -26 -6z"/>
<path d="M681 522 c-21 -27 -28 -45 -24 -60 6 -24 -6 -29 -25 -10 -9 9 -15 9
-24 0 -9 -9 -9 -15 -3 -20 6 -4 38 -26 72 -49 34 -24 67 -43 72 -43 6 0 18
-11 27 -26 23 -34 56 -50 166 -79 118 -32 118 -32 117 8 -1 18 -3 24 -6 14 -4
-14 -11 -17 -26 -13 -12 3 -30 6 -39 6 -14 0 -17 7 -13 33 l5 32 -10 -32 c-7
-22 -15 -30 -25 -27 -8 4 -15 9 -15 13 1 22 28 106 33 104 4 -2 18 -3 32 -3
17 0 29 -7 35 -22 7 -18 9 -19 9 -5 1 9 6 17 12 17 6 0 9 5 7 11 -2 7 -29 18
-58 26 -94 23 -140 44 -140 63 0 10 -27 33 -70 58 -38 23 -71 42 -74 42 -2 0
-18 -17 -35 -38z m257 -159 c4 -26 -7 -29 -28 -10 -8 6 -6 2 4 -10 25 -30 15
-73 -18 -73 -13 0 -30 7 -37 16 -11 14 -11 18 4 29 10 7 15 19 11 29 -11 28 4
48 33 44 20 -2 29 -9 31 -25z"/>
<path d="M1675 544 c-11 -9 -42 -27 -68 -40 -33 -17 -47 -30 -43 -40 3 -9 -6
-20 -24 -29 -29 -15 -43 -48 -18 -42 20 4 21 -31 1 -36 -14 -4 -13 -5 5 -6 26
-1 29 -18 5 -38 -17 -13 -16 -13 6 -11 36 4 36 -18 0 -31 -47 -16 -29 -24 25
-10 34 8 54 21 73 45 14 19 31 34 38 34 6 0 45 23 84 51 53 37 70 54 62 62 -8
8 -17 7 -35 -2 -13 -8 -30 -10 -37 -6 -7 5 -10 4 -6 -2 4 -6 -5 -21 -19 -34
-27 -26 -22 -29 -65 39 -21 32 -21 34 -3 48 11 7 27 12 36 10 10 -2 15 1 12 9
-3 7 -1 16 5 20 15 9 14 25 -1 25 -7 0 -22 -8 -33 -16z"/>
<path d="M1686 455 c9 -14 19 -24 21 -21 6 6 -20 46 -30 46 -4 0 0 -11 9 -25z"/>
<path d="M981 334 c0 -11 3 -14 6 -6 3 7 2 16 -1 19 -3 4 -6 -2 -5 -13z"/>
</g>
</svg>
